<?xml version="1.0" encoding="UTF-8"?>
<svg xmlns="http://www.w3.org/2000/svg" xmlns:xlink="http://www.w3.org/1999/xlink" width="612pt" height="792pt" viewBox="0 0 612 792">
<path fill-rule="nonzero" fill="#17324d" fill-opacity="1" d="M 291.171875 382.199219 C 291.171875 384.179688 290.394531 385.785156 289.4375 385.785156 C 288.480469 385.785156 287.703125 384.179688 287.703125 382.199219 C 287.703125 380.21875 288.480469 378.613281 289.4375 378.613281 C 290.394531 378.613281 291.171875 380.21875 291.171875 382.199219 "/>
<path fill-rule="nonzero" fill="#17324d" fill-opacity="1" d="M 295.8125 382.628906 L 291.46875 382.628906 L 291.46875 381.785156 L 295.8125 381.785156 Z M 295.8125 382.628906 "/>
<path fill-rule="nonzero" fill="#17324d" fill-opacity="1" d="M 287.40625 382.628906 L 283.109375 382.628906 L 283.109375 381.785156 L 287.40625 381.785156 Z M 287.40625 382.628906 "/>
<path fill-rule="nonzero" fill="#17324d" fill-opacity="1" d="M 289.78125 378.378906 C 289.78125 378.378906 289.765625 378.332031 289.4375 378.332031 C 289.203125 378.332031 289.09375 378.378906 289.09375 378.378906 L 289.09375 369.628906 L 289.78125 369.628906 Z M 289.78125 378.378906 "/>
<path fill-rule="nonzero" fill="#17324d" fill-opacity="1" d="M 285.976562 380.609375 L 287.5625 380.613281 L 287.421875 381.472656 L 285.96875 381.472656 Z M 285.976562 380.609375 "/>
<path fill-rule="nonzero" fill="#17324d" fill-opacity="1" d="M 285.984375 382.941406 L 287.421875 382.925781 C 287.421875 382.925781 287.59375 384.675781 288.359375 385.507812 L 288.3125 393.738281 C 288.3125 393.738281 287.0625 393.316406 285.96875 391.347656 Z M 285.984375 382.941406 "/>
<path fill-rule="nonzero" fill="#17324d" fill-opacity="1" d="M 289.109375 386.035156 C 289.109375 386.035156 289.125 386.082031 289.453125 386.082031 C 289.6875 386.082031 289.796875 386.035156 289.796875 386.035156 L 289.796875 394.832031 L 289.109375 394.832031 Z M 289.109375 386.035156 "/>
<path fill-rule="nonzero" fill="#17324d" fill-opacity="1" d="M 295.296875 382.910156 C 295.296875 382.910156 295.296875 392.488281 290.078125 394.300781 L 290.078125 394.785156 C 290.078125 394.785156 295.558594 393.890625 295.796875 382.910156 Z M 295.296875 382.910156 "/>
<path fill-rule="nonzero" fill="#17324d" fill-opacity="1" d="M 283.609375 381.503906 C 283.609375 381.503906 283.609375 371.953125 288.828125 370.144531 L 288.828125 369.660156 C 288.828125 369.660156 283.347656 370.554688 283.109375 381.503906 Z M 283.609375 381.503906 "/>
<path fill-rule="nonzero" fill="#17324d" fill-opacity="1" d="M 295.296875 381.535156 C 295.296875 381.535156 295.296875 371.945312 290.078125 370.128906 L 290.078125 369.644531 C 290.078125 369.644531 295.558594 370.542969 295.796875 381.535156 Z M 295.296875 381.535156 "/>
<path fill-rule="nonzero" fill="#17324d" fill-opacity="1" d="M 283.609375 382.878906 C 283.609375 382.878906 283.609375 392.507812 288.828125 394.332031 L 288.828125 394.820312 C 288.828125 394.820312 283.347656 393.917969 283.109375 382.878906 Z M 283.609375 382.878906 "/>
<path fill-rule="nonzero" fill="#17324d" fill-opacity="1" d="M 285.921875 393.410156 C 285.921875 393.410156 287.171875 394.675781 288.296875 395.082031 L 288.230469 412.292969 L 286.019531 413.9375 Z M 285.921875 393.410156 "/>
<path fill-rule="nonzero" fill="#17324d" fill-opacity="1" d="M 271.875 393.582031 L 254.011719 393.582031 L 254.011719 379.25 L 252.542969 379.25 L 252.542969 394.214844 L 249.136719 398.496094 L 250.902344 398.511719 L 252.542969 396.558594 L 252.542969 398.425781 L 254.011719 398.425781 L 254.011719 395.042969 L 271.875 395.042969 Z M 271.875 393.582031 "/>
<path fill-rule="nonzero" fill="#17324d" fill-opacity="1" d="M 239.183594 400.589844 L 245.199219 400.558594 L 246.699219 400.917969 L 245.652344 402.089844 Z M 239.183594 400.589844 "/>
<path fill-rule="nonzero" fill="#17324d" fill-opacity="1" d="M 252.605469 400.542969 L 252.605469 402.304688 L 248.964844 401.472656 L 247.972656 402.679688 L 252.605469 403.820312 L 252.605469 404.917969 L 253.984375 404.917969 L 253.984375 400.542969 Z M 252.605469 400.542969 "/>
<path fill-rule="nonzero" fill="#17324d" fill-opacity="1" d="M 273.917969 399.167969 L 273.917969 400.605469 L 276.558594 401.496094 L 277.089844 400.230469 Z M 273.917969 399.167969 "/>
<path fill-rule="nonzero" fill="#17324d" fill-opacity="1" d="M 280.207031 379.238281 L 280.207031 393.621094 L 273.917969 393.621094 L 273.917969 395.03125 L 279.695312 395.03125 L 273.582031 409.421875 L 273.582031 380.25 L 272.207031 380.25 L 272.207031 398.75 L 239.09375 398.75 L 239.09375 380.292969 L 237.714844 380.292969 L 237.714844 413 L 239.09375 413 L 249.230469 400.574219 L 247.433594 400.574219 L 239.09375 410.953125 L 239.09375 400.222656 L 272.207031 400.222656 L 272.207031 412.964844 L 273.558594 412.964844 L 273.558594 413.058594 L 280.207031 397.476562 L 280.207031 401.214844 L 279.121094 400.902344 L 278.589844 402.152344 L 280.207031 402.710938 L 280.207031 404.792969 L 281.582031 404.792969 L 281.582031 379.238281 Z M 280.207031 379.238281 "/>
<path fill-rule="nonzero" fill="#17324d" fill-opacity="1" d="M 284.886719 416.679688 L 284.886719 415.617188 L 290.261719 411.765625 L 364.496094 411.765625 L 369.019531 415.605469 L 369.03125 416.679688 Z M 284.886719 416.679688 "/>
<path fill-rule="nonzero" fill="#17324d" fill-opacity="1" d="M 296.367188 406.605469 L 296.367188 405.828125 L 300.277344 403.003906 L 354.25 403.003906 L 357.539062 405.816406 L 357.550781 406.605469 Z M 296.367188 406.605469 "/>
<path fill-rule="nonzero" fill="#17324d" fill-opacity="1" d="M 277.554688 423.046875 L 277.554688 421.808594 L 283.863281 417.316406 L 371.039062 417.316406 L 376.351562 421.789062 L 376.367188 423.046875 Z M 277.554688 423.046875 "/>
<path fill-rule="nonzero" fill="#17324d" fill-opacity="1" d="M 291.074219 411.210938 L 291.074219 410.308594 L 295.660156 407.046875 L 358.976562 407.046875 L 362.832031 410.296875 L 362.84375 411.210938 Z M 291.074219 411.210938 "/>
<path fill-rule="nonzero" fill="#17324d" fill-opacity="1" d="M 305.03125 399.3125 L 305.03125 398.757812 L 307.832031 396.75 L 346.523438 396.75 L 348.878906 398.75 L 348.886719 399.3125 Z M 305.03125 399.3125 "/>
<path fill-rule="nonzero" fill="#17324d" fill-opacity="1" d="M 311.015625 394.0625 L 311.015625 393.65625 L 313.050781 392.183594 L 341.183594 392.183594 L 342.898438 393.652344 L 342.902344 394.0625 Z M 311.015625 394.0625 "/>
<path fill-rule="nonzero" fill="#17324d" fill-opacity="1" d="M 301.210938 402.628906 L 301.210938 401.984375 L 304.5 399.644531 L 349.933594 399.644531 L 352.703125 401.976562 L 352.710938 402.628906 Z M 301.210938 402.628906 "/>
<path fill-rule="nonzero" fill="#17324d" fill-opacity="1" d="M 308.257812 396.460938 L 308.257812 395.992188 L 310.648438 394.292969 L 343.644531 394.292969 L 345.65625 395.984375 L 345.660156 396.460938 Z M 308.257812 396.460938 "/>
<path fill-rule="nonzero" fill="#17324d" fill-opacity="1" d="M 315.4375 390.296875 L 315.4375 390.007812 L 316.910156 388.953125 L 337.238281 388.953125 L 338.476562 390.003906 L 338.484375 390.296875 Z M 315.4375 390.296875 "/>
<path fill-rule="nonzero" fill="#17324d" fill-opacity="1" d="M 318.582031 387.539062 L 318.582031 387.324219 L 319.652344 386.550781 L 334.433594 386.550781 L 335.335938 387.324219 L 335.339844 387.539062 Z M 318.582031 387.539062 "/>
<path fill-rule="nonzero" fill="#17324d" fill-opacity="1" d="M 313.429688 392.039062 L 313.429688 391.699219 L 315.15625 390.472656 L 339.03125 390.472656 L 340.488281 391.695312 L 340.492188 392.039062 Z M 313.429688 392.039062 "/>
<path fill-rule="nonzero" fill="#17324d" fill-opacity="1" d="M 317.132812 388.800781 L 317.132812 388.550781 L 318.386719 387.660156 L 335.726562 387.660156 L 336.785156 388.550781 L 336.785156 388.800781 Z M 317.132812 388.800781 "/>
<path fill-rule="nonzero" fill="#17324d" fill-opacity="1" d="M 320.976562 385.511719 L 320.976562 385.359375 L 321.746094 384.808594 L 332.355469 384.808594 L 333.003906 385.359375 L 333.003906 385.511719 Z M 320.976562 385.511719 "/>
<path fill-rule="nonzero" fill="#17324d" fill-opacity="1" d="M 322.617188 384.070312 L 322.617188 383.960938 L 323.175781 383.558594 L 330.890625 383.558594 L 331.363281 383.957031 L 331.363281 384.070312 Z M 322.617188 384.070312 "/>
<path fill-rule="nonzero" fill="#17324d" fill-opacity="1" d="M 319.929688 386.421875 L 319.929688 386.246094 L 320.832031 385.601562 L 333.292969 385.601562 L 334.050781 386.242188 L 334.054688 386.421875 Z M 319.929688 386.421875 "/>
<path fill-rule="nonzero" fill="#17324d" fill-opacity="1" d="M 321.859375 384.730469 L 321.859375 384.601562 L 322.515625 384.136719 L 331.566406 384.136719 L 332.121094 384.601562 L 332.121094 384.730469 Z M 321.859375 384.730469 "/>
<path fill-rule="nonzero" fill="#17324d" fill-opacity="1" d="M 323.878906 383.035156 L 323.878906 382.957031 L 324.277344 382.675781 L 329.796875 382.675781 L 330.132812 382.957031 L 330.132812 383.035156 Z M 323.878906 383.035156 "/>
<path fill-rule="nonzero" fill="#17324d" fill-opacity="1" d="M 323.335938 383.503906 L 323.335938 383.414062 L 323.804688 383.082031 L 330.28125 383.082031 L 330.675781 383.410156 L 330.679688 383.503906 Z M 323.335938 383.503906 "/>
<path fill-rule="nonzero" fill="#17324d" fill-opacity="1" d="M 324.339844 382.636719 L 324.339844 382.570312 L 324.679688 382.328125 L 329.386719 382.328125 L 329.671875 382.566406 L 329.671875 382.636719 Z M 324.339844 382.636719 "/>
<path fill="none" stroke-width="0.3" stroke-linecap="butt" stroke-linejoin="miter" stroke="#17324d" stroke-opacity="1" stroke-miterlimit="10" d="M 0 -0.0009625 C 0 -0.0009625 0.5625 0.440444 1.300781 0.354506 C 2.035156 0.264663 1.34375 0.0888813 2.121094 -0.0009625 C 2.902344 -0.0869 2.382812 0.428725 3.292969 0.366225 C 4.203125 0.299819 3.8125 0.209975 4.246094 -0.008775 C 4.679688 -0.227525 4.679688 0.440444 5.242188 0.440444 C 5.804688 0.440444 5.414062 0.124038 6.066406 0.0185688 " transform="matrix(1, 0, 0, -1, 235.3125, 413.1631)"/>
<path fill="none" stroke-width="0.3" stroke-linecap="butt" stroke-linejoin="miter" stroke="#17324d" stroke-opacity="1" stroke-miterlimit="10" d="M 0.0019125 -0.00093125 C 0.0019125 -0.00093125 0.564413 0.440475 1.298788 0.354538 C 2.037069 0.264694 1.341756 0.0889125 2.123006 -0.00093125 C 2.904256 -0.090775 2.384725 0.428756 3.294881 0.36235 C 4.201131 0.29985 3.814413 0.210006 4.248006 -0.01265 C 4.6816 -0.2314 4.6816 0.440475 5.2441 0.440475 C 5.8066 0.440475 5.415975 0.124069 6.064413 0.0186 " transform="matrix(1, 0, 0, -1, 250.2559, 405.2061)"/>
<path fill="none" stroke-width="0.3" stroke-linecap="butt" stroke-linejoin="miter" stroke="#17324d" stroke-opacity="1" stroke-miterlimit="10" d="M 0.00190625 0.00096875 C 0.00190625 0.00096875 0.564406 0.442375 1.298781 0.352531 C 2.037062 0.266594 1.34175 0.0869062 2.123 0.00096875 C 2.90425 -0.088875 2.384719 0.430656 3.294875 0.36425 C 4.201125 0.30175 3.814406 0.208 4.244094 -0.01075 C 4.681594 -0.2295 4.681594 0.442375 5.244094 0.442375 C 5.806594 0.442375 5.415969 0.122062 6.064406 0.0165937 " transform="matrix(1, 0, 0, -1, 278.0645, 404.958)"/>
<path fill="none" stroke-width="0.3" stroke-linecap="butt" stroke-linejoin="miter" stroke="#17324d" stroke-opacity="1" stroke-miterlimit="10" d="M 0.0009625 -0.00193125 C 0.0009625 -0.00193125 0.563462 0.443381 1.301744 0.353538 C 2.036119 0.2676 1.344712 0.0879125 2.122056 -0.00193125 C 2.903306 -0.0878687 2.383775 0.431663 3.293931 0.365256 C 4.204087 0.302756 3.813462 0.209006 4.247056 -0.00974375 C 4.68065 -0.228494 4.68065 0.443381 5.24315 0.443381 C 5.80565 0.443381 5.418931 0.123069 6.067369 0.0176 " transform="matrix(1, 0, 0, -1, 269.8506, 413.0801)"/>
<path fill-rule="nonzero" fill="#17324d" fill-opacity="1" d="M 281.480469 418.074219 L 281.476562 410.027344 C 281.476562 410.027344 281.476562 410.027344 281.476562 410.023438 L 281.476562 410.003906 L 281.460938 410.003906 C 281.421875 409.871094 281.007812 409.761719 280.492188 409.761719 C 279.976562 409.761719 279.566406 409.871094 279.523438 410.003906 L 279.519531 410.003906 L 279.519531 410.011719 C 279.519531 410.015625 279.511719 410.019531 279.511719 410.023438 C 279.511719 410.03125 279.519531 410.035156 279.519531 410.042969 L 279.519531 419.496094 Z M 280.5 409.84375 C 280.949219 409.84375 281.3125 409.929688 281.3125 410.042969 C 281.3125 410.152344 280.949219 410.242188 280.5 410.242188 C 280.050781 410.242188 279.6875 410.152344 279.6875 410.042969 C 279.6875 409.929688 280.050781 409.84375 280.5 409.84375 "/>
<path fill-rule="nonzero" fill="#17324d" fill-opacity="1" d="M 374.988281 419.703125 L 374.988281 410.25 C 374.988281 410.242188 375 410.238281 375 410.234375 C 375 410.226562 374.988281 410.222656 374.988281 410.21875 L 374.988281 410.214844 L 374.984375 410.214844 C 374.941406 410.078125 374.53125 409.972656 374.015625 409.972656 C 373.5 409.972656 373.089844 410.078125 373.050781 410.214844 L 373.035156 410.214844 L 373.035156 410.234375 L 373 418.042969 Z M 374.824219 410.25 C 374.824219 410.359375 374.457031 410.449219 374.007812 410.449219 C 373.558594 410.449219 373.199219 410.359375 373.199219 410.25 C 373.199219 410.140625 373.558594 410.050781 374.007812 410.050781 C 374.457031 410.050781 374.824219 410.140625 374.824219 410.25 "/>
<path fill-rule="nonzero" fill="#17324d" fill-opacity="1" d="M 293.988281 407.566406 L 293.988281 401.710938 L 293.976562 401.710938 C 293.945312 401.613281 293.648438 401.535156 293.273438 401.535156 C 292.898438 401.535156 292.597656 401.613281 292.570312 401.710938 L 292.566406 401.710938 L 292.566406 401.714844 C 292.566406 401.71875 292.558594 401.722656 292.558594 401.726562 C 292.558594 401.730469 292.566406 401.734375 292.566406 401.738281 L 292.566406 408.59375 Z M 293.277344 401.59375 C 293.605469 401.59375 293.867188 401.660156 293.867188 401.738281 C 293.867188 401.816406 293.605469 401.882812 293.277344 401.882812 C 292.953125 401.882812 292.6875 401.816406 292.6875 401.738281 C 292.6875 401.660156 292.953125 401.59375 293.277344 401.59375 "/>
<path fill-rule="nonzero" fill="#17324d" fill-opacity="1" d="M 361.941406 408.746094 L 361.941406 401.890625 C 361.941406 401.886719 361.949219 401.882812 361.949219 401.878906 C 361.949219 401.875 361.941406 401.871094 361.941406 401.867188 L 361.941406 401.863281 L 361.9375 401.863281 C 361.90625 401.765625 361.609375 401.6875 361.234375 401.6875 C 360.859375 401.6875 360.558594 401.765625 360.53125 401.863281 L 360.519531 401.863281 L 360.519531 401.878906 L 360.496094 407.542969 Z M 361.820312 401.890625 C 361.820312 401.96875 361.554688 402.03125 361.226562 402.03125 C 360.902344 402.03125 360.636719 401.96875 360.636719 401.890625 C 360.636719 401.808594 360.902344 401.742188 361.226562 401.742188 C 361.554688 401.742188 361.820312 401.808594 361.820312 401.890625 "/>
<path fill-rule="nonzero" fill="#17324d" fill-opacity="1" d="M 303.304688 399.917969 L 303.304688 395.726562 L 303.296875 395.726562 C 303.273438 395.65625 303.058594 395.597656 302.792969 395.597656 C 302.523438 395.597656 302.308594 395.65625 302.289062 395.726562 L 302.285156 395.726562 C 302.285156 395.730469 302.28125 395.730469 302.28125 395.734375 C 302.28125 395.738281 302.285156 395.742188 302.285156 395.742188 L 302.285156 400.65625 Z M 302.796875 395.640625 C 303.027344 395.640625 303.21875 395.6875 303.21875 395.742188 C 303.21875 395.800781 303.027344 395.847656 302.796875 395.847656 C 302.5625 395.847656 302.371094 395.800781 302.371094 395.742188 C 302.371094 395.6875 302.5625 395.640625 302.796875 395.640625 "/>
<path fill-rule="nonzero" fill="#17324d" fill-opacity="1" d="M 351.972656 400.765625 L 351.972656 395.851562 C 351.972656 395.847656 351.980469 395.847656 351.980469 395.84375 C 351.980469 395.839844 351.972656 395.839844 351.972656 395.835938 L 351.972656 395.832031 C 351.949219 395.761719 351.738281 395.707031 351.46875 395.707031 C 351.199219 395.707031 350.984375 395.761719 350.964844 395.832031 L 350.957031 395.832031 L 350.957031 395.84375 L 350.941406 399.902344 Z M 351.886719 395.851562 C 351.886719 395.910156 351.699219 395.957031 351.464844 395.957031 C 351.230469 395.957031 351.042969 395.910156 351.042969 395.851562 C 351.042969 395.792969 351.230469 395.75 351.464844 395.75 C 351.699219 395.75 351.886719 395.792969 351.886719 395.851562 "/>
<path fill-rule="nonzero" fill="#17324d" fill-opacity="1" d="M 309.75 394.519531 L 309.746094 391.476562 L 309.746094 391.46875 L 309.742188 391.46875 C 309.726562 391.417969 309.570312 391.378906 309.375 391.378906 C 309.179688 391.378906 309.023438 391.417969 309.007812 391.46875 C 309.007812 391.472656 309.003906 391.472656 309.003906 391.476562 C 309.003906 391.476562 309.007812 391.480469 309.007812 391.484375 L 309.007812 395.058594 Z M 309.378906 391.40625 C 309.546875 391.40625 309.6875 391.441406 309.6875 391.484375 C 309.6875 391.523438 309.546875 391.558594 309.378906 391.558594 C 309.207031 391.558594 309.070312 391.523438 309.070312 391.484375 C 309.070312 391.441406 309.207031 391.40625 309.378906 391.40625 "/>
<path fill-rule="nonzero" fill="#17324d" fill-opacity="1" d="M 345.167969 395.136719 L 345.167969 391.5625 C 345.167969 391.558594 345.175781 391.558594 345.175781 391.554688 C 345.175781 391.554688 345.167969 391.550781 345.167969 391.550781 L 345.167969 391.546875 C 345.152344 391.496094 344.996094 391.457031 344.800781 391.457031 C 344.605469 391.457031 344.449219 391.496094 344.433594 391.546875 L 344.429688 391.546875 L 344.429688 391.554688 L 344.414062 394.507812 Z M 345.105469 391.5625 C 345.105469 391.601562 344.96875 391.636719 344.796875 391.636719 C 344.628906 391.636719 344.488281 391.601562 344.488281 391.5625 C 344.488281 391.519531 344.628906 391.484375 344.796875 391.484375 C 344.96875 391.484375 345.105469 391.519531 345.105469 391.5625 "/>
<path fill-rule="nonzero" fill="#17324d" fill-opacity="1" d="M 314.542969 390.597656 L 314.542969 388.398438 L 314.539062 388.398438 C 314.527344 388.363281 314.414062 388.332031 314.273438 388.332031 C 314.136719 388.332031 314.023438 388.363281 314.011719 388.398438 L 314.011719 388.402344 C 314.011719 388.402344 314.007812 388.40625 314.007812 388.40625 C 314.007812 388.40625 314.011719 388.410156 314.011719 388.410156 L 314.011719 390.984375 Z M 314.277344 388.355469 C 314.398438 388.355469 314.5 388.378906 314.5 388.410156 C 314.5 388.441406 314.398438 388.464844 314.277344 388.464844 C 314.152344 388.464844 314.054688 388.441406 314.054688 388.410156 C 314.054688 388.378906 314.152344 388.355469 314.277344 388.355469 "/>
<path fill-rule="nonzero" fill="#17324d" fill-opacity="1" d="M 340.0625 391.042969 L 340.0625 388.46875 C 340.0625 388.464844 340.066406 388.464844 340.066406 388.460938 C 340.066406 388.460938 340.0625 388.460938 340.0625 388.457031 L 340.058594 388.457031 C 340.050781 388.421875 339.9375 388.390625 339.796875 388.390625 C 339.65625 388.390625 339.542969 388.421875 339.53125 388.457031 L 339.527344 388.457031 L 339.527344 388.464844 L 339.519531 390.589844 Z M 340.015625 388.46875 C 340.015625 388.496094 339.917969 388.519531 339.792969 388.519531 C 339.671875 388.519531 339.574219 388.496094 339.574219 388.46875 C 339.574219 388.4375 339.671875 388.414062 339.792969 388.414062 C 339.917969 388.414062 340.015625 388.4375 340.015625 388.46875 "/>
<path fill-rule="nonzero" fill="#17324d" fill-opacity="1" d="M 317.941406 387.820312 L 317.9375 386.226562 L 317.9375 386.222656 C 317.929688 386.195312 317.847656 386.175781 317.746094 386.175781 C 317.640625 386.175781 317.558594 386.195312 317.550781 386.222656 C 317.550781 386.222656 317.546875 386.222656 317.546875 386.226562 C 317.546875 386.226562 317.550781 386.226562 317.550781 386.230469 L 317.550781 388.101562 Z M 317.746094 386.1875 C 317.835938 386.1875 317.90625 386.207031 317.90625 386.230469 C 317.90625 386.25 317.835938 386.269531 317.746094 386.269531 C 317.65625 386.269531 317.585938 386.25 317.585938 386.230469 C 317.585938 386.207031 317.65625 386.1875 317.746094 386.1875 "/>
<path fill-rule="nonzero" fill="#17324d" fill-opacity="1" d="M 336.507812 388.144531 L 336.507812 386.269531 C 336.507812 386.269531 336.511719 386.269531 336.511719 386.265625 C 336.511719 386.265625 336.507812 386.265625 336.507812 386.265625 L 336.507812 386.261719 C 336.5 386.234375 336.417969 386.214844 336.316406 386.214844 C 336.210938 386.214844 336.128906 386.234375 336.121094 386.261719 L 336.121094 386.265625 L 336.113281 387.816406 Z M 336.476562 386.269531 C 336.476562 386.292969 336.402344 386.308594 336.3125 386.308594 C 336.226562 386.308594 336.152344 386.292969 336.152344 386.269531 C 336.152344 386.246094 336.226562 386.230469 336.3125 386.230469 C 336.402344 386.230469 336.476562 386.246094 336.476562 386.269531 "/>
<path fill-rule="nonzero" fill="#17324d" fill-opacity="1" d="M 320.503906 385.699219 L 320.5 384.550781 L 320.5 384.546875 C 320.492188 384.53125 320.4375 384.515625 320.363281 384.515625 C 320.289062 384.515625 320.230469 384.53125 320.222656 384.546875 C 320.222656 384.550781 320.222656 384.550781 320.222656 384.550781 C 320.222656 384.550781 320.222656 384.550781 320.222656 384.554688 L 320.222656 385.902344 Z M 320.363281 384.527344 C 320.425781 384.527344 320.480469 384.539062 320.480469 384.554688 C 320.480469 384.570312 320.425781 384.582031 320.363281 384.582031 C 320.300781 384.582031 320.246094 384.570312 320.246094 384.554688 C 320.246094 384.539062 320.300781 384.527344 320.363281 384.527344 "/>
<path fill-rule="nonzero" fill="#17324d" fill-opacity="1" d="M 333.867188 385.933594 L 333.867188 384.582031 C 333.867188 384.582031 333.867188 384.578125 333.867188 384.578125 L 333.863281 384.578125 C 333.859375 384.558594 333.800781 384.542969 333.726562 384.542969 C 333.652344 384.542969 333.59375 384.558594 333.589844 384.578125 L 333.585938 384.578125 L 333.585938 384.582031 L 333.582031 385.695312 Z M 333.84375 384.582031 C 333.84375 384.597656 333.789062 384.613281 333.726562 384.613281 C 333.664062 384.613281 333.609375 384.597656 333.609375 384.582031 C 333.609375 384.566406 333.664062 384.554688 333.726562 384.554688 C 333.789062 384.554688 333.84375 384.566406 333.84375 384.582031 "/>
<path fill-rule="nonzero" fill="#17324d" fill-opacity="1" d="M 322.226562 384.199219 L 322.226562 383.359375 L 322.222656 383.359375 C 322.21875 383.34375 322.175781 383.332031 322.121094 383.332031 C 322.070312 383.332031 322.027344 383.34375 322.023438 383.359375 L 322.019531 383.359375 C 322.019531 383.363281 322.023438 383.363281 322.023438 383.363281 L 322.023438 384.347656 Z M 322.125 383.34375 C 322.171875 383.34375 322.207031 383.351562 322.207031 383.363281 C 322.207031 383.375 322.171875 383.382812 322.125 383.382812 C 322.078125 383.382812 322.039062 383.375 322.039062 383.363281 C 322.039062 383.351562 322.078125 383.34375 322.125 383.34375 "/>
<path fill-rule="nonzero" fill="#17324d" fill-opacity="1" d="M 331.980469 384.367188 L 331.980469 383.382812 C 331.976562 383.367188 331.933594 383.355469 331.878906 383.355469 C 331.828125 383.355469 331.785156 383.367188 331.78125 383.382812 L 331.777344 383.382812 L 331.773438 384.195312 Z M 331.964844 383.382812 C 331.964844 383.394531 331.925781 383.40625 331.878906 383.40625 C 331.832031 383.40625 331.792969 383.394531 331.792969 383.382812 C 331.792969 383.375 331.832031 383.363281 331.878906 383.363281 C 331.925781 383.363281 331.964844 383.375 331.964844 383.382812 "/>
<path fill-rule="nonzero" fill="#17324d" fill-opacity="1" d="M 323.640625 383.117188 L 323.636719 382.523438 C 323.632812 382.515625 323.605469 382.503906 323.566406 382.503906 C 323.527344 382.503906 323.496094 382.515625 323.492188 382.523438 L 323.492188 383.222656 Z M 323.566406 382.511719 C 323.601562 382.511719 323.625 382.519531 323.625 382.527344 C 323.625 382.535156 323.601562 382.539062 323.566406 382.539062 C 323.535156 382.539062 323.503906 382.535156 323.503906 382.527344 C 323.503906 382.519531 323.535156 382.511719 323.566406 382.511719 "/>
<path fill-rule="nonzero" fill="#17324d" fill-opacity="1" d="M 330.554688 383.238281 L 330.554688 382.539062 C 330.550781 382.527344 330.519531 382.519531 330.484375 382.519531 C 330.445312 382.519531 330.414062 382.527344 330.410156 382.539062 L 330.40625 383.117188 Z M 330.542969 382.539062 C 330.542969 382.550781 330.515625 382.554688 330.484375 382.554688 C 330.449219 382.554688 330.421875 382.550781 330.421875 382.539062 C 330.421875 382.53125 330.449219 382.527344 330.484375 382.527344 C 330.515625 382.527344 330.542969 382.53125 330.542969 382.539062 "/>
<path fill-rule="nonzero" fill="#17324d" fill-opacity="1" d="M 324.5625 382.367188 L 324.5625 381.929688 L 324.558594 381.929688 C 324.558594 381.921875 324.535156 381.917969 324.507812 381.917969 C 324.480469 381.917969 324.457031 381.921875 324.457031 381.929688 L 324.453125 381.929688 L 324.457031 381.933594 L 324.457031 382.445312 Z M 324.507812 381.921875 C 324.53125 381.921875 324.550781 381.925781 324.550781 381.933594 C 324.550781 381.9375 324.53125 381.941406 324.507812 381.941406 C 324.484375 381.941406 324.464844 381.9375 324.464844 381.933594 C 324.464844 381.925781 324.484375 381.921875 324.507812 381.921875 "/>
<path fill-rule="nonzero" fill="#17324d" fill-opacity="1" d="M 329.644531 382.457031 L 329.644531 381.941406 C 329.640625 381.933594 329.621094 381.929688 329.589844 381.929688 C 329.5625 381.929688 329.539062 381.933594 329.539062 381.941406 L 329.535156 382.367188 Z M 329.632812 381.945312 C 329.632812 381.949219 329.617188 381.953125 329.589844 381.953125 C 329.566406 381.953125 329.546875 381.949219 329.546875 381.945312 C 329.546875 381.9375 329.566406 381.933594 329.589844 381.933594 C 329.617188 381.933594 329.632812 381.9375 329.632812 381.945312 "/>
</svg>
