<?xml version="1.0" encoding="UTF-8"?>
<svg xmlns="http://www.w3.org/2000/svg" xmlns:xlink="http://www.w3.org/1999/xlink" width="778.352pt" height="387.055pt" viewBox="0 0 778.352 387.055">
<path fill-rule="nonzero" fill="#17324D" fill-opacity="1" d="M 304.582031 96.65625 C 304.582031 96.699219 304.542969 96.738281 304.496094 96.738281 L 300.886719 96.738281 C 300.84375 96.738281 300.804688 96.699219 300.804688 96.65625 L 300.804688 50.050781 C 300.804688 50.007812 300.84375 49.96875 300.886719 49.96875 L 304.496094 49.96875 C 304.542969 49.96875 304.582031 50.007812 304.582031 50.050781 Z M 304.582031 96.65625 "/>
<path fill-rule="nonzero" fill="#17324D" fill-opacity="1" d="M 306.097656 52.378906 L 306.109375 50.191406 C 306.109375 50.066406 306.226562 49.976562 306.347656 50.007812 C 308.101562 50.453125 309.820312 51.125 311.507812 52.035156 C 324.1875 58.894531 330.867188 73.855469 333.824219 87.273438 C 335.699219 95.785156 336.6875 104.605469 336.789062 113.730469 C 336.789062 113.765625 336.761719 113.789062 336.730469 113.789062 L 334.128906 113.78125 C 334.089844 113.777344 334.054688 113.746094 334.050781 113.703125 C 333.816406 103.210938 332.347656 93.148438 329.652344 83.511719 C 326.113281 70.851562 319.328125 57.65625 306.34375 52.734375 C 306.195312 52.679688 306.097656 52.535156 306.097656 52.378906 "/>
<path fill-rule="nonzero" fill="#17324D" fill-opacity="1" d="M 299.417969 52.453125 C 299.417969 52.613281 299.324219 52.753906 299.175781 52.808594 C 286.226562 57.699219 279.449219 70.835938 275.902344 83.449219 C 273.207031 93.042969 271.730469 103.070312 271.476562 113.523438 C 271.472656 113.566406 271.441406 113.601562 271.402344 113.601562 L 268.804688 113.609375 C 268.773438 113.609375 268.75 113.582031 268.75 113.550781 C 268.863281 104.457031 269.863281 95.667969 271.742188 87.191406 C 274.707031 73.824219 281.386719 58.925781 294.03125 52.109375 C 295.707031 51.203125 297.421875 50.53125 299.171875 50.089844 C 299.292969 50.0625 299.414062 50.152344 299.414062 50.277344 Z M 299.417969 52.453125 "/>
<path fill-rule="nonzero" fill="#17324D" fill-opacity="1" d="M 302.691406 98.03125 C 307.851562 98.03125 312.035156 106.664062 312.035156 117.3125 C 312.035156 127.960938 307.851562 136.59375 302.691406 136.59375 C 297.527344 136.59375 293.34375 127.960938 293.34375 117.3125 C 293.34375 106.664062 297.527344 98.03125 302.691406 98.03125 "/>
<path fill-rule="nonzero" fill="#17324D" fill-opacity="1" d="M 254.3125 238.472656 C 253.933594 238.410156 253.71875 238.402344 253.664062 238.453125 C 253.597656 238.515625 253.644531 238.625 253.734375 238.621094 C 254.128906 238.613281 254.328125 238.609375 254.328125 238.605469 C 254.390625 238.574219 254.378906 238.484375 254.3125 238.472656 M 217.511719 282.410156 C 217.578125 282.320312 217.519531 282.195312 217.410156 282.195312 L 213.0625 282.179688 C 212.902344 282.179688 212.746094 282.253906 212.648438 282.382812 C 212.09375 283.09375 211.503906 283.496094 210.882812 283.589844 C 209.863281 283.746094 206.664062 283.742188 206.089844 282.308594 C 205.984375 282.046875 205.773438 281.886719 205.453125 281.832031 C 202.828125 281.363281 200.425781 281.902344 198.253906 283.445312 C 198.203125 283.480469 198.136719 283.46875 198.097656 283.421875 L 197.21875 282.238281 C 197.195312 282.210938 197.203125 282.167969 197.230469 282.144531 C 199.851562 280.335938 202.675781 279.699219 205.703125 280.238281 C 206.695312 280.414062 207.316406 280.847656 207.5625 281.523438 C 207.609375 281.664062 207.734375 281.761719 207.875 281.785156 L 210.03125 282.140625 C 210.160156 282.164062 210.269531 282.070312 210.269531 281.941406 L 210.269531 214.035156 C 210.269531 213.984375 210.230469 213.945312 210.175781 213.945312 L 33.03125 213.945312 C 32.976562 213.945312 32.933594 213.984375 32.933594 214.039062 L 32.933594 271 C 32.933594 271.082031 33.039062 271.117188 33.089844 271.054688 L 77.417969 215.867188 C 77.496094 215.761719 77.625 215.707031 77.753906 215.707031 C 82.042969 215.703125 87.074219 215.648438 87.171875 215.765625 C 87.203125 215.800781 87.207031 215.855469 87.175781 215.890625 L 34.269531 280.761719 C 34.085938 280.984375 34.117188 281.316406 34.34375 281.5 L 35.636719 282.554688 C 35.949219 282.808594 36.402344 282.785156 36.6875 282.496094 C 38.101562 281.050781 38.886719 279.90625 41.214844 280.101562 C 42.382812 280.199219 42.84375 280.46875 43.5 281.46875 C 43.855469 282.015625 44.421875 282.289062 45.195312 282.292969 C 45.253906 282.292969 45.300781 282.34375 45.289062 282.402344 L 45.042969 283.867188 C 45.039062 283.910156 44.996094 283.941406 44.953125 283.941406 C 43.96875 283.847656 43.140625 283.484375 42.476562 282.859375 C 42.191406 282.59375 41.960938 281.8125 41.460938 281.75 C 39.566406 281.519531 39.082031 282.292969 37.855469 283.652344 C 36.503906 285.136719 34.289062 283.972656 33.339844 282.726562 C 33.203125 282.542969 32.984375 282.4375 32.753906 282.4375 L 27.9375 282.4375 C 27.824219 282.4375 27.71875 282.5 27.660156 282.59375 C 27.082031 283.609375 26.199219 284.101562 24.980469 284.117188 C 23.824219 284.128906 21.226562 283.945312 20.929688 282.617188 C 20.902344 282.5 20.8125 282.410156 20.695312 282.378906 C 18.070312 281.746094 15.546875 282.246094 13.128906 283.875 C 13.082031 283.90625 13.015625 283.898438 12.980469 283.847656 L 12.113281 282.6875 C 12.085938 282.652344 12.097656 282.605469 12.132812 282.578125 C 14.8125 280.722656 17.707031 280.113281 20.816406 280.738281 C 21.492188 280.875 22.179688 281.195312 22.40625 281.855469 C 22.472656 282.042969 22.632812 282.179688 22.828125 282.214844 L 25.140625 282.59375 C 25.308594 282.621094 25.457031 282.492188 25.457031 282.324219 L 25.457031 107.113281 C 25.457031 107.058594 25.503906 107.011719 25.5625 107.011719 L 32.828125 107.011719 C 32.886719 107.011719 32.933594 107.058594 32.933594 107.117188 L 32.933594 205.882812 C 32.933594 205.9375 32.976562 205.976562 33.03125 205.976562 L 210.082031 205.976562 C 210.1875 205.976562 210.269531 205.894531 210.269531 205.789062 L 210.269531 106.957031 C 210.269531 106.859375 210.351562 106.777344 210.449219 106.777344 L 217.648438 106.777344 C 217.707031 106.777344 217.753906 106.824219 217.753906 106.878906 L 217.753906 262.6875 C 217.753906 262.714844 217.789062 262.71875 217.796875 262.695312 L 250.390625 186.34375 C 250.433594 186.242188 250.355469 186.125 250.246094 186.125 L 219.546875 186.125 C 219.488281 186.125 219.445312 186.078125 219.445312 186.019531 L 219.445312 178.699219 C 219.445312 178.585938 219.539062 178.492188 219.648438 178.492188 L 253.027344 178.492188 C 253.128906 178.492188 253.214844 178.410156 253.214844 178.308594 L 253.214844 101.578125 C 253.214844 101.472656 253.296875 101.386719 253.402344 101.386719 L 260.414062 101.386719 C 260.523438 101.386719 260.605469 101.476562 260.605469 101.582031 L 260.605469 236.417969 C 260.605469 236.515625 260.675781 236.597656 260.773438 236.613281 C 261.898438 236.808594 262.957031 236.800781 263.78125 237.777344 C 264.125 238.179688 264.554688 238.484375 265.078125 238.695312 C 265.347656 238.800781 265.65625 238.722656 265.847656 238.503906 C 267.054688 237.101562 268.070312 236.019531 270.023438 236.117188 C 271.636719 236.195312 271.890625 236.492188 272.785156 237.699219 C 272.917969 237.875 273.101562 238.011719 273.3125 238.082031 L 274.351562 238.429688 C 274.390625 238.445312 274.414062 238.484375 274.40625 238.523438 L 274.183594 239.882812 C 274.175781 239.925781 274.132812 239.957031 274.085938 239.957031 C 273.117188 239.867188 272.300781 239.523438 271.636719 238.917969 C 271.414062 238.710938 271.183594 238.257812 270.972656 237.988281 C 270.902344 237.894531 270.800781 237.828125 270.6875 237.808594 C 269.996094 237.65625 269.390625 237.699219 268.878906 237.9375 C 267.828125 238.421875 267.367188 239.628906 266.351562 240.128906 C 265.109375 240.742188 263.722656 240.082031 262.832031 239.125 C 262.160156 238.402344 261.480469 238.210938 260.703125 238.363281 C 259.507812 238.597656 258.089844 238.417969 257.09375 238.484375 C 256.972656 238.492188 256.859375 238.558594 256.792969 238.660156 C 255.542969 240.535156 253.808594 240.273438 251.777344 239.890625 C 250.863281 239.71875 250.277344 239.289062 250.019531 238.613281 C 249.972656 238.484375 249.867188 238.394531 249.734375 238.367188 C 247.066406 237.796875 244.574219 238.316406 242.246094 239.921875 C 242.210938 239.945312 242.15625 239.9375 242.132812 239.902344 L 241.234375 238.699219 C 241.210938 238.667969 241.222656 238.628906 241.25 238.605469 C 243.902344 236.78125 246.769531 236.160156 249.851562 236.742188 C 250.808594 236.921875 251.394531 237.359375 251.609375 238.0625 C 251.640625 238.167969 251.730469 238.246094 251.839844 238.265625 L 253.011719 238.457031 C 253.117188 238.476562 253.214844 238.390625 253.214844 238.285156 L 253.214844 227.386719 C 253.214844 227.300781 253.160156 227.226562 253.074219 227.195312 L 244.660156 224.371094 C 244.546875 224.335938 244.488281 224.207031 244.539062 224.097656 L 247.328125 217.5625 C 247.351562 217.511719 247.40625 217.484375 247.460938 217.5 L 253.015625 219.109375 C 253.113281 219.136719 253.214844 219.0625 253.214844 218.960938 L 253.214844 199.65625 C 253.214844 199.585938 253.121094 199.566406 253.089844 199.632812 L 218.640625 280.339844 C 218.613281 280.410156 218.644531 280.488281 218.714844 280.515625 C 219.21875 280.71875 219.644531 281.078125 219.988281 281.589844 C 220.015625 281.628906 220.050781 281.664062 220.09375 281.6875 L 220.953125 282.1875 C 221.234375 282.351562 221.589844 282.296875 221.808594 282.054688 C 222.964844 280.78125 223.75 279.757812 225.625 279.628906 C 226.550781 279.566406 227.335938 279.75 227.980469 280.179688 C 228.074219 280.246094 228.15625 280.328125 228.21875 280.425781 L 228.800781 281.308594 C 228.894531 281.453125 229.039062 281.558594 229.203125 281.605469 L 230.347656 281.9375 C 230.378906 281.945312 230.402344 281.976562 230.394531 282.015625 L 230.167969 283.402344 C 230.15625 283.453125 230.109375 283.488281 230.058594 283.484375 C 228.585938 283.332031 227.585938 282.714844 227.058594 281.628906 C 226.988281 281.484375 226.863281 281.382812 226.710938 281.339844 C 225.839844 281.105469 225.0625 281.238281 224.378906 281.746094 C 223.746094 282.214844 223.160156 283.214844 222.480469 283.589844 C 220.910156 284.453125 219.359375 283.359375 218.289062 282.121094 C 218.167969 281.984375 217.945312 282.019531 217.871094 282.1875 L 217.703125 282.59375 C 217.671875 282.660156 217.578125 282.664062 217.542969 282.597656 C 217.492188 282.511719 217.484375 282.449219 217.511719 282.410156 "/>
<path fill-rule="nonzero" fill="#17324D" fill-opacity="1" d="M 104.886719 181.75 L 104.886719 101.578125 C 104.886719 101.519531 104.933594 101.472656 104.992188 101.472656 L 112.734375 101.472656 C 112.789062 101.472656 112.839844 101.519531 112.839844 101.578125 L 112.839844 178.140625 C 112.839844 178.199219 112.886719 178.246094 112.945312 178.246094 L 208.484375 178.246094 C 208.542969 178.246094 208.589844 178.292969 208.589844 178.351562 L 208.589844 186.097656 C 208.589844 186.15625 208.542969 186.207031 208.484375 186.207031 L 112.945312 186.207031 C 112.886719 186.207031 112.839844 186.253906 112.839844 186.3125 L 112.839844 204.191406 C 112.839844 204.25 112.789062 204.296875 112.734375 204.296875 L 104.992188 204.296875 C 104.933594 204.296875 104.886719 204.25 104.886719 204.191406 L 104.886719 194.726562 C 104.886719 194.632812 104.765625 194.585938 104.699219 194.660156 L 96.230469 204.714844 C 96.210938 204.738281 96.179688 204.753906 96.148438 204.753906 L 86.703125 204.695312 C 86.617188 204.695312 86.566406 204.59375 86.625 204.523438 L 104.863281 181.816406 C 104.875 181.796875 104.886719 181.773438 104.886719 181.75 "/>
<path fill-rule="nonzero" fill="#17324D" fill-opacity="1" d="M 284.082031 113.351562 L 284.082031 108.832031 C 284.082031 108.773438 284.128906 108.730469 284.1875 108.730469 L 292.578125 108.78125 C 292.644531 108.78125 292.691406 108.839844 292.683594 108.898438 L 291.9375 113.367188 C 291.929688 113.417969 291.886719 113.453125 291.835938 113.453125 L 284.1875 113.453125 C 284.128906 113.453125 284.082031 113.410156 284.082031 113.351562 "/>
<path fill-rule="nonzero" fill="#17324D" fill-opacity="1" d="M 291.878906 119.507812 C 291.878906 119.582031 291.820312 119.640625 291.746094 119.640625 L 268.859375 119.640625 C 268.785156 119.640625 268.726562 119.582031 268.726562 119.507812 L 268.726562 115.1875 C 268.726562 115.113281 268.785156 115.054688 268.859375 115.054688 L 291.746094 115.054688 C 291.820312 115.054688 291.878906 115.113281 291.878906 115.1875 Z M 291.878906 119.507812 "/>
<path fill-rule="nonzero" fill="#17324D" fill-opacity="1" d="M 336.898438 119.515625 C 336.898438 119.582031 336.84375 119.636719 336.777344 119.636719 L 313.621094 119.636719 C 313.554688 119.636719 313.5 119.582031 313.5 119.515625 L 313.5 115.179688 C 313.5 115.113281 313.554688 115.058594 313.621094 115.058594 L 336.777344 115.058594 C 336.84375 115.058594 336.898438 115.113281 336.898438 115.179688 Z M 336.898438 119.515625 "/>
<path fill-rule="nonzero" fill="#17324D" fill-opacity="1" d="M 490.960938 118.390625 L 491.488281 118 C 491.535156 117.96875 491.59375 117.949219 491.652344 117.949219 L 516.324219 117.949219 C 516.644531 117.949219 516.957031 118.0625 517.203125 118.265625 L 518.285156 119.179688 C 518.453125 119.324219 518.351562 119.589844 518.136719 119.589844 L 489.878906 119.589844 C 489.683594 119.589844 489.597656 119.339844 489.757812 119.222656 L 490.378906 118.761719 C 490.460938 118.703125 490.488281 118.601562 490.453125 118.507812 C 490.453125 118.503906 490.433594 118.480469 490.402344 118.4375 C 490.375 118.390625 490.359375 118.339844 490.359375 118.289062 L 490.359375 115.898438 C 490.359375 115.828125 490.414062 115.773438 490.476562 115.773438 L 490.898438 115.773438 C 490.929688 115.773438 490.957031 115.796875 490.960938 115.828125 C 491.082031 116.785156 491.050781 117.613281 490.851562 118.320312 C 490.832031 118.382812 490.90625 118.429688 490.960938 118.390625 "/>
<path fill-rule="nonzero" fill="#17324D" fill-opacity="1" d="M 518.1875 118.558594 C 518.1875 118.644531 518.089844 118.691406 518.023438 118.636719 L 517.742188 118.410156 C 517.613281 118.308594 517.535156 118.148438 517.535156 117.980469 L 517.535156 116.039062 C 517.535156 115.914062 517.640625 115.8125 517.765625 115.8125 L 517.949219 115.8125 C 518.078125 115.8125 518.1875 115.921875 518.1875 116.054688 Z M 518.1875 118.558594 "/>
<path fill-rule="nonzero" fill="#17324D" fill-opacity="1" d="M 485.785156 122.460938 L 485.378906 122.765625 C 485.28125 122.835938 485.144531 122.765625 485.144531 122.648438 L 485.144531 119.1875 C 485.144531 119.054688 485.253906 118.949219 485.386719 118.949219 L 485.808594 118.949219 C 485.929688 118.949219 486.027344 119.046875 486.027344 119.164062 L 486.027344 121.980469 C 486.027344 122.171875 485.9375 122.347656 485.785156 122.460938 "/>
<path fill-rule="nonzero" fill="#17324D" fill-opacity="1" d="M 523.105469 122.769531 C 523.105469 122.796875 523.085938 122.816406 523.058594 122.816406 L 523.03125 122.816406 C 522.585938 122.824219 522.214844 122.417969 522.210938 121.914062 L 522.179688 119.835938 C 522.171875 119.332031 522.53125 118.914062 522.976562 118.90625 L 523.003906 118.90625 C 523.03125 118.90625 523.054688 118.929688 523.054688 118.957031 Z M 523.105469 122.769531 "/>
<path fill-rule="nonzero" fill="#17324D" fill-opacity="1" d="M 487.300781 121.304688 L 489.195312 119.890625 C 489.230469 119.863281 489.28125 119.847656 489.332031 119.847656 L 518.917969 119.847656 C 518.972656 119.847656 519.027344 119.867188 519.066406 119.898438 L 520.824219 121.308594 C 520.996094 121.449219 520.902344 121.726562 520.679688 121.726562 L 487.4375 121.726562 C 487.210938 121.726562 487.117188 121.4375 487.300781 121.304688 "/>
<path fill-rule="nonzero" fill="#17324D" fill-opacity="1" d="M 299.464844 182.570312 L 299.453125 184.765625 C 299.453125 184.890625 299.332031 184.984375 299.210938 184.949219 C 297.453125 184.503906 295.726562 183.824219 294.039062 182.90625 C 281.332031 176 274.652344 160.984375 271.710938 147.515625 C 269.839844 138.976562 268.863281 130.125 268.777344 120.972656 C 268.777344 120.9375 268.800781 120.910156 268.835938 120.914062 L 271.445312 120.925781 C 271.488281 120.929688 271.519531 120.960938 271.523438 121.003906 C 271.746094 131.527344 273.199219 141.628906 275.886719 151.300781 C 279.417969 164.007812 286.203125 177.253906 299.21875 182.214844 C 299.367188 182.269531 299.46875 182.414062 299.464844 182.570312 "/>
<path fill-rule="nonzero" fill="#17324D" fill-opacity="1" d="M 306.097656 182.417969 C 306.097656 182.257812 306.195312 182.117188 306.34375 182.0625 C 319.316406 177.148438 326.101562 163.972656 329.648438 151.324219 C 332.34375 141.695312 333.816406 131.644531 334.054688 121.160156 C 334.058594 121.121094 334.089844 121.085938 334.132812 121.085938 L 336.734375 121.078125 C 336.761719 121.078125 336.789062 121.105469 336.789062 121.136719 C 336.683594 130.253906 335.691406 139.0625 333.816406 147.566406 C 330.855469 160.972656 324.171875 175.914062 311.5 182.765625 C 309.820312 183.671875 308.101562 184.347656 306.347656 184.789062 C 306.222656 184.820312 306.109375 184.730469 306.109375 184.605469 Z M 306.097656 182.417969 "/>
<path fill-rule="nonzero" fill="#17324D" fill-opacity="1" d="M 296.695312 179.074219 C 296.695312 179.167969 296.59375 179.234375 296.507812 179.191406 C 291.085938 176.59375 286.9375 171.652344 284.097656 166.429688 C 284.070312 166.382812 284.058594 166.335938 284.058594 166.285156 L 284.152344 121.433594 C 284.152344 121.316406 284.246094 121.222656 284.367188 121.21875 L 291.742188 121.183594 C 291.832031 121.183594 291.90625 121.246094 291.921875 121.335938 C 291.953125 121.507812 292.03125 121.980469 292.152344 122.761719 C 292.6875 126.179688 293.574219 129.195312 294.820312 131.804688 C 295.214844 132.636719 295.898438 133.675781 296.867188 134.925781 C 296.929688 135.003906 296.960938 135.101562 296.960938 135.199219 Z M 296.695312 179.074219 "/>
<path fill-rule="nonzero" fill="#17324D" fill-opacity="1" d="M 521.558594 121.976562 L 523.691406 123.71875 C 523.917969 123.902344 523.789062 124.261719 523.5 124.261719 L 484.589844 124.261719 C 484.292969 124.261719 484.171875 123.878906 484.414062 123.707031 L 486.859375 121.96875 C 486.910156 121.929688 486.976562 121.910156 487.035156 121.910156 L 521.367188 121.910156 C 521.4375 121.910156 521.503906 121.9375 521.558594 121.976562 "/>
<path fill-rule="nonzero" fill="#17324D" fill-opacity="1" d="M 477.371094 123.421875 L 478.355469 123.421875 C 478.417969 123.421875 478.464844 123.472656 478.464844 123.53125 L 478.464844 127.996094 C 478.464844 128.035156 478.449219 128.066406 478.421875 128.085938 L 477.433594 128.820312 C 477.363281 128.875 477.261719 128.824219 477.261719 128.734375 L 477.261719 123.53125 C 477.261719 123.472656 477.308594 123.421875 477.371094 123.421875 "/>
<path fill-rule="nonzero" fill="#17324D" fill-opacity="1" d="M 530.726562 128.757812 C 530.726562 128.863281 530.605469 128.921875 530.523438 128.855469 L 529.757812 128.234375 C 529.644531 128.144531 529.578125 128.011719 529.578125 127.867188 L 529.578125 123.878906 C 529.578125 123.679688 529.738281 123.519531 529.9375 123.519531 L 530.382812 123.519531 C 530.574219 123.519531 530.726562 123.671875 530.726562 123.867188 Z M 530.726562 128.757812 "/>
<path fill-rule="nonzero" fill="#17324D" fill-opacity="1" d="M 524.972656 124.597656 L 527.390625 126.667969 C 527.660156 126.898438 527.496094 127.339844 527.136719 127.339844 L 480.761719 127.339844 C 480.390625 127.339844 480.238281 126.859375 480.539062 126.644531 L 483.445312 124.578125 C 483.507812 124.53125 483.585938 124.507812 483.664062 124.507812 L 524.726562 124.507812 C 524.816406 124.507812 524.90625 124.539062 524.972656 124.597656 "/>
<path fill-rule="nonzero" fill="#17324D" fill-opacity="1" d="M 528.660156 127.757812 L 531.378906 130.046875 C 531.722656 130.339844 531.519531 130.90625 531.0625 130.90625 L 476.867188 130.90625 C 476.390625 130.90625 476.195312 130.296875 476.582031 130.019531 L 479.796875 127.730469 C 479.878906 127.671875 479.980469 127.640625 480.082031 127.640625 L 528.34375 127.640625 C 528.460938 127.640625 528.574219 127.683594 528.660156 127.757812 "/>
<path fill-rule="nonzero" fill="#17324D" fill-opacity="1" d="M 467.710938 129.816406 L 469.09375 129.804688 C 469.15625 129.804688 469.207031 129.855469 469.207031 129.921875 L 469.238281 136.039062 C 469.238281 136.078125 469.21875 136.113281 469.1875 136.136719 L 467.816406 137.117188 C 467.738281 137.171875 467.632812 137.117188 467.632812 137.023438 L 467.597656 129.929688 C 467.597656 129.867188 467.648438 129.816406 467.710938 129.816406 "/>
<path fill-rule="nonzero" fill="#17324D" fill-opacity="1" d="M 539.730469 130.207031 C 539.980469 130.285156 540.183594 130.285156 540.34375 130.203125 C 540.425781 130.164062 540.425781 130.042969 540.34375 130 C 540.234375 129.945312 540.03125 129.964844 539.730469 130.058594 C 539.65625 130.082031 539.65625 130.183594 539.730469 130.207031 M 540.847656 137.175781 C 540.847656 137.277344 540.726562 137.335938 540.648438 137.269531 L 539.425781 136.238281 C 539.304688 136.136719 539.238281 135.984375 539.238281 135.828125 L 539.238281 130.308594 C 539.238281 130.03125 539.460938 129.804688 539.742188 129.804688 L 540.347656 129.804688 C 540.621094 129.804688 540.847656 130.03125 540.847656 130.308594 Z M 540.847656 137.175781 "/>
<path fill-rule="nonzero" fill="#17324D" fill-opacity="1" d="M 535.992188 135.078125 L 472.144531 135.078125 C 471.613281 135.078125 471.398438 134.398438 471.828125 134.089844 L 475.699219 131.335938 C 475.8125 131.253906 475.949219 131.214844 476.082031 131.214844 L 532.519531 131.214844 C 532.652344 131.214844 532.78125 131.261719 532.882812 131.347656 C 534.105469 132.40625 535.160156 133.300781 536.042969 134.035156 C 536.214844 134.171875 536.261719 134.460938 536.195312 134.902344 C 536.179688 135.003906 536.09375 135.078125 535.992188 135.078125 "/>
<path fill-rule="nonzero" fill="#17324D" fill-opacity="1" d="M 541.835938 139.832031 C 541.835938 139.914062 541.765625 139.976562 541.6875 139.976562 L 466.222656 139.980469 C 466.140625 139.980469 466.074219 139.914062 466.074219 139.832031 L 466.074219 139.121094 C 466.078125 139.007812 466.128906 138.90625 466.21875 138.84375 L 470.8125 135.546875 C 470.886719 135.492188 470.972656 135.464844 471.058594 135.464844 L 537.496094 135.457031 C 537.652344 135.457031 537.804688 135.515625 537.925781 135.617188 L 541.675781 138.800781 C 541.777344 138.886719 541.832031 139.007812 541.832031 139.136719 Z M 541.835938 139.832031 "/>
<path fill-rule="nonzero" fill="#17324D" fill-opacity="1" d="M 304.589844 137.988281 C 304.632812 137.988281 304.664062 138.019531 304.664062 138.0625 L 304.664062 185.007812 C 304.664062 185.046875 304.554688 185.082031 304.417969 185.082031 L 301.128906 185.082031 C 300.992188 185.082031 300.882812 185.046875 300.882812 185.007812 L 300.882812 138.0625 C 300.882812 138.019531 300.914062 137.988281 300.957031 137.988281 Z M 304.589844 137.988281 "/>
<path fill-rule="nonzero" fill="#17324D" fill-opacity="1" d="M 453.671875 138.699219 C 454.121094 138.457031 454.546875 138.417969 454.957031 138.585938 C 455.003906 138.601562 454.992188 138.679688 454.941406 138.679688 Z M 453.671875 138.699219 "/>
<path fill-rule="nonzero" fill="#17324D" fill-opacity="1" d="M 453.671875 138.699219 C 454.09375 139.191406 454.59375 139.210938 455.171875 138.761719 C 455.300781 138.660156 455.484375 138.75 455.484375 138.914062 L 455.484375 147.402344 C 455.484375 147.460938 455.453125 147.523438 455.398438 147.558594 L 453.351562 149.015625 C 453.332031 149.027344 453.304688 149.015625 453.304688 148.992188 L 453.304688 138.886719 C 453.304688 138.863281 453.3125 138.839844 453.324219 138.820312 C 453.390625 138.726562 453.503906 138.6875 453.671875 138.699219 "/>
<path fill-rule="nonzero" fill="#17324D" fill-opacity="1" d="M 553.273438 139.140625 C 553.273438 139.242188 553.566406 139.328125 553.925781 139.328125 C 554.285156 139.328125 554.578125 139.242188 554.578125 139.140625 C 554.578125 139.039062 554.285156 138.953125 553.925781 138.953125 C 553.566406 138.953125 553.273438 139.039062 553.273438 139.140625 M 555 149.183594 C 555 149.207031 554.972656 149.222656 554.953125 149.207031 L 552.917969 147.546875 C 552.859375 147.5 552.828125 147.429688 552.828125 147.355469 L 552.828125 139.335938 C 552.828125 139.039062 553.070312 138.800781 553.367188 138.800781 L 554.457031 138.800781 C 554.753906 138.800781 555 139.042969 555 139.34375 Z M 555 149.183594 "/>
<path fill-rule="nonzero" fill="#17324D" fill-opacity="1" d="M 458.851562 145.734375 L 458.851562 144.816406 C 458.851562 144.746094 458.886719 144.675781 458.945312 144.640625 L 464.566406 140.636719 C 464.605469 140.605469 464.652344 140.59375 464.695312 140.59375 L 543.804688 140.59375 C 543.855469 140.59375 543.910156 140.613281 543.949219 140.644531 L 548.644531 144.667969 C 548.695312 144.710938 548.722656 144.769531 548.722656 144.832031 L 548.722656 145.734375 C 548.722656 145.855469 548.625 145.949219 548.503906 145.949219 L 459.070312 145.949219 C 458.945312 145.949219 458.851562 145.855469 458.851562 145.734375 "/>
<path fill-rule="nonzero" fill="#17324D" fill-opacity="1" d="M 451.257812 152.679688 C 451.144531 152.679688 451.050781 152.585938 451.050781 152.472656 L 451.050781 151.453125 C 451.050781 151.363281 451.097656 151.277344 451.171875 151.226562 L 457.707031 146.574219 C 457.789062 146.515625 457.882812 146.484375 457.980469 146.484375 L 550.585938 146.492188 C 550.730469 146.492188 550.867188 146.542969 550.972656 146.636719 L 556.328125 151.140625 C 556.386719 151.195312 556.433594 151.265625 556.457031 151.34375 C 556.546875 151.679688 556.570312 152.066406 556.523438 152.5 C 556.515625 152.605469 556.425781 152.683594 556.320312 152.683594 Z M 451.257812 152.679688 "/>
<path fill-rule="nonzero" fill="#17324D" fill-opacity="1" d="M 434.882812 150.566406 C 434.878906 150.726562 435.296875 150.863281 435.820312 150.875 C 436.339844 150.882812 436.765625 150.761719 436.769531 150.601562 C 436.769531 150.441406 436.351562 150.304688 435.832031 150.296875 C 435.3125 150.285156 434.886719 150.410156 434.882812 150.566406 M 434.351562 164.492188 L 434.324219 150.953125 C 434.320312 150.527344 434.667969 150.179688 435.09375 150.179688 L 436.5 150.175781 C 436.945312 150.175781 437.304688 150.535156 437.304688 150.980469 L 437.332031 162.121094 C 437.332031 162.160156 437.3125 162.203125 437.277344 162.230469 L 434.425781 164.527344 C 434.398438 164.554688 434.351562 164.53125 434.351562 164.492188 "/>
<path fill-rule="nonzero" fill="#17324D" fill-opacity="1" d="M 571.605469 150.863281 C 571.601562 151.050781 572.039062 151.210938 572.582031 151.21875 C 573.121094 151.226562 573.5625 151.082031 573.566406 150.890625 C 573.570312 150.703125 573.132812 150.542969 572.589844 150.535156 C 572.050781 150.53125 571.609375 150.675781 571.605469 150.863281 M 574.0625 164.691406 C 574.0625 164.730469 574.019531 164.753906 573.988281 164.726562 L 571.136719 162.441406 C 571.105469 162.414062 571.085938 162.375 571.085938 162.332031 L 571.085938 151.226562 C 571.085938 150.78125 571.445312 150.421875 571.890625 150.421875 L 573.292969 150.421875 C 573.71875 150.421875 574.0625 150.765625 574.0625 151.191406 Z M 574.0625 164.691406 "/>
<path fill-rule="nonzero" fill="#17324D" fill-opacity="1" d="M 441.96875 160.484375 L 441.96875 159.292969 C 441.96875 159.1875 442.019531 159.085938 442.105469 159.027344 L 449.769531 153.570312 C 449.863281 153.503906 449.976562 153.46875 450.085938 153.46875 L 558.644531 153.46875 C 558.808594 153.46875 558.972656 153.527344 559.097656 153.636719 L 565.371094 158.917969 C 565.441406 158.980469 565.496094 159.0625 565.519531 159.15625 C 565.625 159.546875 565.65625 160 565.601562 160.511719 C 565.589844 160.632812 565.484375 160.726562 565.363281 160.726562 L 442.210938 160.726562 C 442.078125 160.726562 441.96875 160.617188 441.96875 160.484375 "/>
<path fill-rule="nonzero" fill="#17324D" fill-opacity="1" d="M 576.371094 170.050781 C 576.375 170.101562 576.332031 170.140625 576.28125 170.140625 L 431.371094 170.152344 C 431.269531 170.152344 431.1875 170.074219 431.1875 169.96875 L 431.199219 168.429688 C 431.199219 168.308594 431.257812 168.191406 431.359375 168.117188 L 440.359375 161.664062 C 440.433594 161.609375 440.519531 161.582031 440.609375 161.582031 L 568.339844 161.574219 C 568.476562 161.574219 568.605469 161.621094 568.707031 161.707031 L 576.214844 168.089844 C 576.28125 168.148438 576.324219 168.230469 576.324219 168.316406 Z M 576.371094 170.050781 "/>
<path fill-rule="nonzero" fill="#17324D" fill-opacity="1" d="M 408.054688 167.054688 C 408.054688 167.25 408.730469 167.414062 409.5625 167.414062 C 410.398438 167.414062 411.070312 167.257812 411.070312 167.0625 C 411.070312 166.867188 410.398438 166.707031 409.5625 166.707031 C 408.730469 166.707031 408.054688 166.859375 408.054688 167.054688 M 407.675781 186.191406 C 407.628906 186.222656 407.5625 186.195312 407.5625 186.136719 L 407.5625 167.082031 C 407.5625 166.886719 407.691406 166.722656 407.878906 166.667969 C 409.136719 166.316406 410.257812 166.324219 411.234375 166.703125 C 411.445312 166.78125 411.582031 166.984375 411.582031 167.210938 L 411.582031 183.203125 C 411.582031 183.335938 411.523438 183.460938 411.414062 183.53125 Z M 407.675781 186.191406 "/>
<path fill-rule="nonzero" fill="#17324D" fill-opacity="1" d="M 600.9375 167.480469 C 600.9375 167.292969 600.246094 167.144531 599.402344 167.148438 C 598.554688 167.152344 597.867188 167.308594 597.867188 167.496094 C 597.867188 167.6875 598.554688 167.832031 599.402344 167.832031 C 600.25 167.828125 600.9375 167.671875 600.9375 167.480469 M 601.390625 186.527344 C 601.390625 186.605469 601.292969 186.652344 601.230469 186.601562 L 597.417969 183.386719 C 597.34375 183.324219 597.296875 183.230469 597.296875 183.128906 L 597.390625 167.558594 C 597.394531 167.335938 597.546875 167.144531 597.761719 167.089844 C 598.863281 166.816406 599.976562 166.816406 601.09375 167.097656 C 601.265625 167.144531 601.390625 167.296875 601.390625 167.472656 Z M 601.390625 186.527344 "/>
<path fill-rule="nonzero" fill="#17324D" fill-opacity="1" d="M 418.324219 180.71875 L 418.324219 178.664062 C 418.324219 178.613281 418.351562 178.566406 418.394531 178.535156 L 429.242188 170.816406 C 429.269531 170.796875 429.296875 170.785156 429.332031 170.785156 L 580.011719 170.785156 C 580.050781 170.785156 580.085938 170.796875 580.113281 170.824219 L 589.171875 178.574219 C 589.207031 178.605469 589.226562 178.648438 589.226562 178.695312 L 589.226562 180.71875 C 589.226562 180.804688 589.15625 180.875 589.070312 180.875 L 418.484375 180.875 C 418.398438 180.875 418.324219 180.804688 418.324219 180.71875 "/>
<path fill-rule="nonzero" fill="#17324D" fill-opacity="1" d="M 284.433594 287.433594 C 284.394531 287.460938 284.339844 287.433594 284.339844 287.386719 L 283.8125 177.542969 C 283.8125 177.4375 283.933594 177.382812 284.011719 177.457031 C 287.585938 181.023438 291.792969 184.335938 296.410156 186.234375 C 296.527344 186.28125 296.605469 186.398438 296.605469 186.527344 C 296.675781 191.414062 296.523438 197.265625 296.535156 201.109375 C 296.550781 205.796875 296.519531 215.726562 296.441406 230.902344 C 296.371094 244.597656 296.320312 260.113281 296.285156 277.449219 C 296.285156 277.835938 296.242188 278.210938 296.160156 278.574219 C 296.132812 278.667969 296.074219 278.757812 295.996094 278.820312 Z M 284.433594 287.433594 "/>
<path fill-rule="nonzero" fill="#17324D" fill-opacity="1" d="M 403.59375 191.121094 L 416.242188 182.125 C 416.269531 182.105469 416.296875 182.09375 416.328125 182.09375 L 593.230469 182.09375 C 593.265625 182.09375 593.300781 182.109375 593.328125 182.132812 L 603.992188 191.113281 C 604.023438 191.140625 604.042969 191.183594 604.042969 191.226562 L 604.042969 193.605469 C 604.042969 193.683594 603.976562 193.753906 603.894531 193.753906 L 403.683594 193.753906 C 403.601562 193.753906 403.535156 193.683594 403.535156 193.605469 L 403.535156 191.242188 C 403.535156 191.195312 403.554688 191.152344 403.59375 191.121094 "/>
<path fill-rule="nonzero" fill="#17324D" fill-opacity="1" d="M 372.121094 189.898438 C 372.121094 190.15625 373.085938 190.371094 374.28125 190.375 C 375.46875 190.375 376.4375 190.167969 376.4375 189.90625 C 376.4375 189.648438 375.472656 189.4375 374.28125 189.433594 C 373.089844 189.429688 372.121094 189.640625 372.121094 189.898438 M 371.664062 216.175781 C 371.613281 216.207031 371.550781 216.175781 371.550781 216.117188 L 371.550781 189.867188 C 371.550781 189.652344 371.691406 189.464844 371.898438 189.410156 C 373.59375 188.945312 375.199219 188.953125 376.710938 189.445312 C 376.898438 189.503906 377.023438 189.679688 377.023438 189.875 L 377.023438 212.238281 C 377.023438 212.316406 376.984375 212.386719 376.925781 212.433594 Z M 371.664062 216.175781 "/>
<path fill-rule="nonzero" fill="#17324D" fill-opacity="1" d="M 637.261719 190.476562 C 637.261719 190.207031 636.296875 189.984375 635.101562 189.984375 C 633.910156 189.984375 632.945312 190.207031 632.945312 190.476562 C 632.945312 190.746094 633.910156 190.96875 635.101562 190.96875 C 636.296875 190.96875 637.261719 190.746094 637.261719 190.476562 M 637.886719 216.6875 C 637.886719 216.78125 637.777344 216.832031 637.707031 216.769531 L 632.351562 212.261719 C 632.289062 212.207031 632.25 212.125 632.25 212.039062 L 632.378906 190.460938 C 632.382812 190.253906 632.519531 190.070312 632.71875 190.007812 C 634.144531 189.578125 636.390625 189.402344 637.703125 190.097656 C 637.816406 190.15625 637.886719 190.273438 637.886719 190.398438 Z M 637.886719 216.6875 "/>
<path fill-rule="nonzero" fill="#17324D" fill-opacity="1" d="M 621.347656 208.917969 C 621.347656 208.976562 621.296875 209.027344 621.234375 209.027344 L 386.449219 209.035156 C 386.339844 209.035156 386.25 208.945312 386.25 208.835938 L 386.25 206.074219 C 386.25 206.007812 386.28125 205.941406 386.335938 205.90625 L 401.03125 195.449219 C 401.183594 195.339844 401.363281 195.28125 401.550781 195.28125 C 468.761719 195.28125 537.59375 195.28125 608.050781 195.277344 C 608.46875 195.277344 608.789062 195.367188 609.003906 195.550781 C 616.804688 202.148438 620.871094 205.589844 621.207031 205.871094 C 621.277344 205.921875 621.320312 205.996094 621.320312 206.082031 Z M 621.347656 208.917969 "/>
<path fill-rule="nonzero" fill="#17324D" fill-opacity="1" d="M 236.53125 214.054688 L 233.722656 220.644531 C 233.695312 220.714844 233.617188 220.746094 233.546875 220.722656 L 219.542969 216.023438 C 219.488281 216.003906 219.449219 215.949219 219.449219 215.890625 L 219.449219 208.359375 C 219.449219 208.261719 219.542969 208.195312 219.632812 208.222656 L 236.449219 213.867188 C 236.527344 213.894531 236.566406 213.980469 236.53125 214.054688 "/>
<path fill-rule="nonzero" fill="#17324D" fill-opacity="1" d="M 641.839844 226.746094 C 641.839844 226.816406 641.78125 226.875 641.710938 226.875 L 365.992188 226.875 C 365.863281 226.875 365.761719 226.769531 365.761719 226.644531 L 365.761719 223.402344 C 365.761719 223.320312 365.800781 223.242188 365.863281 223.199219 L 383.121094 210.921875 C 383.296875 210.792969 383.511719 210.726562 383.730469 210.726562 C 462.65625 210.726562 543.488281 210.730469 626.226562 210.726562 C 626.71875 210.726562 627.09375 210.835938 627.347656 211.050781 C 636.507812 218.800781 641.285156 222.839844 641.679688 223.171875 C 641.761719 223.226562 641.808594 223.316406 641.808594 223.417969 Z M 641.839844 226.746094 "/>
<path fill-rule="nonzero" fill="#17324D" fill-opacity="1" d="M 106 239.5625 L 106.246094 239.261719 C 106.320312 239.175781 106.242188 239.042969 106.128906 239.0625 C 105.515625 239.183594 105.210938 239.148438 105.210938 238.957031 C 105.199219 237.050781 105.199219 235.179688 105.214844 233.34375 C 105.214844 233.261719 105.164062 233.195312 105.085938 233.175781 L 80.589844 227.152344 C 80.492188 227.128906 80.453125 227.007812 80.519531 226.929688 L 85.625 220.667969 C 85.703125 220.574219 85.828125 220.53125 85.945312 220.558594 L 105.035156 224.980469 C 105.125 225.003906 105.207031 224.933594 105.207031 224.84375 L 105.207031 215.671875 C 105.207031 215.601562 105.265625 215.542969 105.335938 215.542969 L 112.570312 215.542969 C 112.632812 215.542969 112.6875 215.597656 112.6875 215.660156 L 112.6875 237.933594 C 112.6875 238.046875 112.773438 238.144531 112.886719 238.15625 C 113.660156 238.21875 114.273438 238.519531 114.714844 239.046875 C 115.125 239.542969 115.546875 239.851562 116.039062 240.015625 C 116.367188 240.121094 116.726562 240.007812 116.933594 239.734375 C 118.125 238.195312 119.378906 237.230469 121.519531 237.464844 C 122.769531 237.605469 123.167969 238.128906 123.753906 239.046875 C 123.835938 239.175781 123.957031 239.28125 124.097656 239.34375 C 124.527344 239.542969 124.894531 239.648438 125.199219 239.671875 C 125.304688 239.679688 125.378906 239.777344 125.363281 239.878906 L 125.160156 241.097656 C 125.144531 241.203125 125.046875 241.28125 124.9375 241.269531 C 123.546875 241.105469 122.578125 240.488281 122.027344 239.414062 C 121.972656 239.304688 121.878906 239.226562 121.769531 239.1875 C 118.605469 238.152344 118.636719 242.363281 115.582031 241.582031 C 114.839844 241.394531 114.097656 240.867188 113.351562 240.003906 C 113.277344 239.917969 113.179688 239.859375 113.070312 239.832031 C 111.671875 239.523438 109.292969 239.121094 108.042969 239.703125 C 107.949219 239.75 107.871094 239.816406 107.816406 239.902344 C 106.621094 241.789062 104.859375 241.609375 102.890625 241.265625 C 101.867188 241.082031 101.214844 240.628906 100.941406 239.902344 C 100.902344 239.792969 100.808594 239.714844 100.695312 239.691406 C 98.011719 239.128906 95.515625 239.648438 93.210938 241.25 C 93.167969 241.28125 93.113281 241.269531 93.085938 241.230469 L 92.195312 240.042969 C 92.175781 240.011719 92.179688 239.964844 92.214844 239.9375 C 94.464844 238.394531 96.882812 237.703125 99.480469 237.878906 C 100.757812 237.964844 102.035156 238.148438 102.574219 239.363281 C 102.621094 239.464844 102.710938 239.542969 102.820312 239.574219 C 103.78125 239.820312 104.71875 239.886719 105.628906 239.769531 C 105.777344 239.75 105.910156 239.675781 106 239.5625 "/>
<path fill-rule="nonzero" fill="#17324D" fill-opacity="1" d="M 73.585938 217.75 L 68.164062 223.828125 C 68.089844 223.90625 67.984375 223.9375 67.882812 223.914062 L 33.488281 215.945312 C 33.453125 215.941406 33.429688 215.90625 33.433594 215.871094 C 33.4375 215.835938 33.46875 215.808594 33.503906 215.808594 L 65.542969 215.65625 C 65.609375 215.65625 65.671875 215.660156 65.734375 215.675781 L 73.515625 217.539062 C 73.613281 217.5625 73.648438 217.675781 73.585938 217.75 "/>
<path fill-rule="nonzero" fill="#17324D" fill-opacity="1" d="M 326.363281 222.023438 C 326.363281 221.621094 324.976562 221.296875 323.269531 221.296875 C 321.5625 221.296875 320.175781 221.621094 320.175781 222.023438 C 320.175781 222.421875 321.5625 222.746094 323.269531 222.746094 C 324.976562 222.746094 326.363281 222.421875 326.363281 222.023438 M 319.542969 258.742188 C 319.503906 258.765625 319.453125 258.742188 319.453125 258.691406 L 319.453125 221.875 C 319.453125 221.765625 319.503906 221.671875 319.589844 221.613281 C 319.972656 221.359375 320.433594 221.1875 320.972656 221.09375 C 322.824219 220.773438 324.65625 220.851562 326.46875 221.324219 C 326.832031 221.417969 327.085938 221.75 327.085938 222.125 L 327.085938 253.148438 C 327.085938 253.289062 327.019531 253.421875 326.902344 253.503906 Z M 319.542969 258.742188 "/>
<path fill-rule="nonzero" fill="#17324D" fill-opacity="1" d="M 684.363281 222.828125 C 684.363281 223.226562 685.742188 223.554688 687.445312 223.558594 C 689.148438 223.5625 690.53125 223.238281 690.53125 222.835938 C 690.53125 222.4375 689.152344 222.109375 687.449219 222.105469 C 685.746094 222.101562 684.363281 222.425781 684.363281 222.828125 M 691.269531 259.492188 C 691.269531 259.570312 691.175781 259.613281 691.113281 259.5625 L 683.59375 253.226562 C 683.507812 253.15625 683.460938 253.046875 683.460938 252.933594 L 683.640625 222.851562 C 683.644531 222.679688 683.730469 222.511719 683.875 222.414062 C 685.195312 221.511719 690.015625 221.363281 691.140625 222.472656 C 691.222656 222.550781 691.269531 222.660156 691.269531 222.777344 Z M 691.269531 259.492188 "/>
<path fill-rule="nonzero" fill="#17324D" fill-opacity="1" d="M 667.570312 248.1875 L 339.992188 248.1875 C 339.878906 248.1875 339.789062 248.097656 339.789062 247.984375 L 339.789062 244.042969 C 339.789062 243.953125 339.832031 243.871094 339.90625 243.816406 C 348.855469 237.355469 355.667969 232.425781 360.351562 229.035156 C 360.828125 228.691406 361.183594 228.734375 361.742188 228.734375 C 458 228.738281 553.640625 228.738281 648.65625 228.734375 C 649.269531 228.734375 649.761719 228.773438 650.121094 228.863281 C 650.210938 228.882812 650.292969 228.921875 650.363281 228.980469 L 667.628906 243.757812 C 667.707031 243.824219 667.75 243.921875 667.75 244.023438 L 667.769531 247.988281 C 667.769531 248.097656 667.679688 248.1875 667.570312 248.1875 "/>
<path fill-rule="nonzero" fill="#17324D" fill-opacity="1" d="M 696.132812 272.789062 C 696.132812 272.835938 696.097656 272.871094 696.050781 272.871094 L 311.53125 272.886719 C 311.472656 272.886719 311.421875 272.835938 311.421875 272.773438 L 311.421875 268.050781 C 311.421875 267.96875 311.457031 267.894531 311.523438 267.84375 L 335.84375 250.539062 C 335.941406 250.46875 336.054688 250.433594 336.179688 250.433594 L 675.195312 250.417969 C 675.324219 250.417969 675.445312 250.464844 675.546875 250.546875 L 695.847656 267.644531 C 696.027344 267.800781 696.132812 268.027344 696.132812 268.265625 Z M 696.132812 272.789062 "/>
<path fill-rule="nonzero" fill="#17324D" fill-opacity="1" d="M 259.066406 266.523438 C 259.066406 265.957031 257.148438 265.5 254.785156 265.5 C 252.421875 265.5 250.503906 265.957031 250.503906 266.523438 C 250.503906 267.089844 252.421875 267.546875 254.785156 267.546875 C 257.148438 267.546875 259.066406 267.089844 259.066406 266.523438 M 249.5 317.058594 L 249.5 266.410156 C 249.5 266.355469 249.519531 266.300781 249.546875 266.257812 C 250.460938 264.757812 255.515625 264.921875 257 265.113281 C 257.878906 265.226562 258.722656 265.460938 259.53125 265.808594 C 259.839844 265.945312 260.039062 266.25 260.039062 266.585938 L 260.039062 309.441406 C 260.039062 309.617188 259.957031 309.78125 259.8125 309.878906 L 249.632812 317.125 C 249.578125 317.164062 249.5 317.125 249.5 317.058594 "/>
<path fill-rule="nonzero" fill="#17324D" fill-opacity="1" d="M 760.234375 267.640625 C 760.234375 267.074219 758.320312 266.617188 755.953125 266.617188 C 753.589844 266.617188 751.675781 267.074219 751.675781 267.640625 C 751.675781 268.203125 753.589844 268.660156 755.953125 268.660156 C 758.320312 268.660156 760.234375 268.203125 760.234375 267.640625 M 761.210938 318.179688 C 761.210938 318.277344 761.097656 318.328125 761.027344 318.265625 L 750.648438 309.523438 C 750.535156 309.429688 750.46875 309.289062 750.472656 309.140625 L 750.722656 267.511719 C 750.722656 267.417969 750.761719 267.328125 750.832031 267.261719 C 751.210938 266.917969 751.570312 266.699219 751.910156 266.609375 C 754.625 265.917969 758.167969 265.761719 760.820312 266.953125 C 761.058594 267.0625 761.210938 267.296875 761.210938 267.554688 Z M 761.210938 318.179688 "/>
<path fill-rule="nonzero" fill="#17324D" fill-opacity="1" d="M 729.289062 302.011719 C 729.289062 302.0625 729.25 302.105469 729.195312 302.105469 L 278.421875 302.105469 C 278.347656 302.105469 278.285156 302.042969 278.285156 301.96875 L 278.285156 296.4375 C 278.285156 296.339844 278.332031 296.25 278.40625 296.195312 L 306.921875 275.902344 C 307.035156 275.824219 307.167969 275.78125 307.308594 275.78125 L 704.746094 275.78125 C 704.894531 275.78125 705.039062 275.835938 705.15625 275.933594 L 728.953125 295.980469 C 729.167969 296.160156 729.289062 296.425781 729.289062 296.707031 Z M 729.289062 302.011719 "/>
<path fill-rule="nonzero" fill="#17324D" fill-opacity="1" d="M 238.980469 335.992188 L 238.980469 329.714844 C 238.980469 329.59375 239.039062 329.476562 239.136719 329.40625 L 272.695312 305.527344 C 272.796875 305.457031 272.914062 305.417969 273.039062 305.417969 L 739.691406 305.417969 C 739.898438 305.417969 740.097656 305.492188 740.253906 305.625 L 768.425781 329.355469 C 768.511719 329.433594 768.5625 329.542969 768.566406 329.65625 L 768.597656 336.015625 C 768.597656 336.085938 768.539062 336.144531 768.46875 336.144531 L 239.132812 336.144531 C 239.046875 336.144531 238.980469 336.074219 238.980469 335.992188 "/>
</svg>
