<svg xmlns="http://www.w3.org/2000/svg" viewBox="0 0 980 760" role="img" aria-labelledby="title desc">
  <title id="title">Northeast Wisconsin service area map</title>
  <desc id="desc">Stylized map showing Mountain, Crivitz, Shawano, Lake Noquebay, Legend Lake, White Potato Lake, Chute Pond, and High Falls Flowage.</desc>
  <defs>
    <linearGradient id="bg" x1="0" x2="0" y1="0" y2="1">
      <stop offset="0%" stop-color="#f5f7fa"/>
      <stop offset="100%" stop-color="#ecf2f6"/>
    </linearGradient>
  </defs>
  <rect width="980" height="760" fill="url(#bg)" rx="36"/>
  <path d="M140 120c120-40 242-58 380-50 102 6 200 28 285 67l18 14-24 22c-75 63-115 152-117 267-2 90-28 170-79 239l-18 21-361-1c-38-31-72-69-99-113-38-61-58-128-60-203-2-74 17-144 56-211 37-61 89-112 155-152 44-27 89-46 139-58z" fill="#fff" stroke="#d8e0e8" stroke-width="4"/>
  <g fill="#b7d9ea" stroke="#3f6788" stroke-width="4">
    <path d="M454 230c16-14 42-18 71-10 23 6 35 21 37 43 2 30-11 48-39 55-34 8-63 3-84-17-18-18-16-44 15-71z"/>
    <path d="M372 276c12-10 29-12 51-7 17 4 28 14 31 31 4 23-5 38-27 46-27 9-51 7-69-6-16-12-14-31 14-64z"/>
    <path d="M520 355c18-15 41-20 67-15 25 5 40 20 44 42 4 25-5 43-30 56-31 16-62 18-91 5-27-12-33-39 10-88z"/>
    <path d="M604 300c16-12 33-16 52-12 16 4 27 14 31 28 5 19-1 35-20 48-23 16-46 20-67 13-19-6-24-27 4-77z"/>
    <path d="M320 370c16-14 33-18 55-14 21 4 32 15 35 33 4 21-3 37-20 47-23 13-47 15-69 7-20-8-25-28-1-73z"/>
    <path d="M500 470c15-13 35-18 58-14 21 4 35 16 38 34 4 22-3 38-24 51-25 15-50 18-74 11-22-7-29-27 2-82z"/>
    <path d="M622 454c14-12 29-16 48-14 16 2 27 11 31 27 5 18-1 34-17 48-20 16-40 23-63 19-23-3-28-22 1-80z"/>
  </g>
  <g font-family="Manrope, Arial, sans-serif">
    <g fill="#17324d">
      <text x="116" y="86" font-size="42" font-weight="800">Bodies of water serviced by Midwest</text>
      <text x="116" y="122" font-size="22" fill="#5e6b78">Mountain, Crivitz, Shawano, Legend Lake, White Potato Lake, Lake Noquebay, Chute Pond, and High Falls Flowage</text>
    </g>
    <g fill="#17324d" font-size="18" font-weight="700">
      <text x="390" y="267">Lake Noquebay</text>
      <text x="300" y="309">High Falls Flowage</text>
      <text x="541" y="396">Legend Lake</text>
      <text x="633" y="344">Chute Pond</text>
      <text x="256" y="411">White Potato Lake</text>
      <text x="518" y="511">Shawano Lake</text>
      <text x="642" y="495">Other serviced lakes</text>
    </g>
    <g>
      <circle cx="520" cy="248" r="12" fill="#1f8a78"/>
      <circle cx="437" cy="284" r="12" fill="#1f8a78"/>
      <circle cx="613" cy="376" r="12" fill="#1f8a78"/>
      <circle cx="689" cy="321" r="12" fill="#1f8a78"/>
      <circle cx="345" cy="389" r="12" fill="#1f8a78"/>
      <circle cx="538" cy="490" r="12" fill="#1f8a78"/>
      <circle cx="654" cy="473" r="12" fill="#1f8a78"/>
    </g>
    <g>
      <circle cx="486" cy="214" r="10" fill="#17324d"/>
      <text x="504" y="219" font-size="18" font-weight="800" fill="#17324d">Mountain</text>
      <circle cx="420" cy="243" r="10" fill="#17324d"/>
      <text x="438" y="248" font-size="18" font-weight="800" fill="#17324d">Crivitz</text>
      <circle cx="505" cy="448" r="10" fill="#17324d"/>
      <text x="523" y="453" font-size="18" font-weight="800" fill="#17324d">Shawano</text>
    </g>
  </g>
</svg>
