<svg xmlns="http://www.w3.org/2000/svg" viewBox="0 0 760 520" role="img" aria-labelledby="title desc">
  <title id="title">Bodies of Water Serviced by Midwest</title>
  <desc id="desc">Illustrated Northeast Wisconsin service-area map highlighting Mountain, Crivitz, Shawano, Lake Noquebay, Legend Lake, White Potato Lake, Chute Pond, and High Falls Flowage.</desc>
  <defs>
    <linearGradient id="bg" x1="0" x2="1" y1="0" y2="1">
      <stop offset="0%" stop-color="#17324d"/>
      <stop offset="100%" stop-color="#3f6788"/>
    </linearGradient>
    <linearGradient id="water" x1="0" x2="1" y1="0" y2="1">
      <stop offset="0%" stop-color="#7ed1c2"/>
      <stop offset="100%" stop-color="#1f8a78"/>
    </linearGradient>
    <filter id="shadow" x="-10%" y="-10%" width="120%" height="120%">
      <feDropShadow dx="0" dy="10" stdDeviation="12" flood-color="#0b1a26" flood-opacity="0.18"/>
    </filter>
  </defs>

  <rect width="760" height="520" rx="36" fill="#eef3f7"/>
  <rect x="20" y="20" width="720" height="480" rx="28" fill="url(#bg)"/>

  <g opacity="0.18">
    <path d="M151 107c43-33 100-43 152-30 48-18 100-19 147 0 51 20 86 57 103 111 15 50 10 102-17 148-27 46-69 76-127 91-36 9-72 8-107-2-47 12-93 6-135-19-52-30-82-72-92-130-13-72 10-127 76-169z" fill="#ffffff"/>
  </g>

  <g fill="none" stroke="#dbe7f1" stroke-linecap="round" stroke-linejoin="round" opacity="0.9">
    <path stroke-width="4" d="M175 123c29 31 51 66 68 105 17 42 26 84 24 125"/>
    <path stroke-width="4" d="M274 123c36 30 61 66 76 107 14 39 18 82 13 130"/>
    <path stroke-width="4" d="M378 110c42 30 70 66 84 109 14 44 14 90 0 139"/>
    <path stroke-width="4" d="M487 124c22 25 38 54 49 85 14 42 16 88 7 139"/>
    <path stroke-width="3" d="M146 208h470"/>
    <path stroke-width="3" d="M168 304h410"/>
  </g>

  <g font-family="Manrope, Arial, sans-serif" fill="#ffffff">
    <text x="58" y="78" font-size="28" font-weight="800">Bodies of Water Serviced by Midwest</text>
    <text x="58" y="108" font-size="16" opacity="0.85">Based in Mountain, Wisconsin and serving lake properties across Northeast Wisconsin.</text>
  </g>

  <g filter="url(#shadow)">
    <path d="M483 170c17-1 29 14 31 31 2 16-8 33-25 37-17 5-35-6-40-22-4-15 2-33 17-42 5-3 11-4 17-4z" fill="url(#water)"/>
    <path d="M404 217c18-2 35 12 38 29 4 18-7 38-25 44-18 6-40-4-47-21-7-17 0-39 17-48 5-2 11-4 17-4z" fill="url(#water)"/>
    <path d="M336 189c16-2 31 9 35 25 5 17-4 35-20 42-17 7-38 0-47-15-9-14-7-35 6-46 7-5 16-6 26-6z" fill="url(#water)"/>
    <path d="M278 257c17-2 32 11 35 27 4 17-7 35-24 40-17 5-36-3-44-19-8-16-3-36 12-45 6-2 13-3 21-3z" fill="url(#water)"/>
    <path d="M224 209c14-2 28 7 33 20 6 16-1 34-16 41-15 8-35 4-45-10-10-13-10-33 1-45 7-4 16-6 27-6z" fill="url(#water)"/>
    <path d="M187 163c13-1 24 8 27 20 4 13-3 28-15 33-13 6-29 1-36-10-8-11-6-27 4-36 6-4 13-6 20-7z" fill="url(#water)"/>
    <path d="M528 236c18-1 32 14 34 31 2 18-10 35-27 39-17 4-35-6-40-23-5-15 2-34 17-42 5-3 10-4 16-5z" fill="url(#water)"/>
    <path d="M563 170c15-1 27 11 29 25 2 15-7 29-21 34-14 4-30-3-36-16-7-13-2-30 10-38 5-2 11-4 18-5z" fill="url(#water)"/>
  </g>

  <g font-family="IBM Plex Mono, monospace" font-size="13" font-weight="500">
    <g>
      <circle cx="194" cy="179" r="6" fill="#ffffff"/>
      <path d="M200 179h56" stroke="#ffffff" stroke-width="2"/>
      <text x="264" y="184" fill="#ffffff">Mountain</text>
    </g>
    <g>
      <circle cx="228" cy="225" r="6" fill="#ffffff"/>
      <path d="M234 225h56" stroke="#ffffff" stroke-width="2"/>
      <text x="298" y="230" fill="#ffffff">Crivitz</text>
    </g>
    <g>
      <circle cx="303" cy="282" r="6" fill="#ffffff"/>
      <path d="M309 282h70" stroke="#ffffff" stroke-width="2"/>
      <text x="387" y="287" fill="#ffffff">Shawano</text>
    </g>
    <g>
      <circle cx="352" cy="215" r="6" fill="#ffffff"/>
      <path d="M358 215h92" stroke="#ffffff" stroke-width="2"/>
      <text x="458" y="220" fill="#ffffff">Lake Noquebay</text>
    </g>
    <g>
      <circle cx="407" cy="244" r="6" fill="#ffffff"/>
      <path d="M413 244h84" stroke="#ffffff" stroke-width="2"/>
      <text x="505" y="249" fill="#ffffff">Legend Lake</text>
    </g>
    <g>
      <circle cx="483" cy="190" r="6" fill="#ffffff"/>
      <path d="M489 190h105" stroke="#ffffff" stroke-width="2"/>
      <text x="602" y="195" fill="#ffffff">White Potato Lake</text>
    </g>
    <g>
      <circle cx="528" cy="255" r="6" fill="#ffffff"/>
      <path d="M534 255h84" stroke="#ffffff" stroke-width="2"/>
      <text x="626" y="260" fill="#ffffff">Chute Pond</text>
    </g>
    <g>
      <circle cx="564" cy="191" r="6" fill="#ffffff"/>
      <path d="M570 191h105" stroke="#ffffff" stroke-width="2"/>
      <text x="683" y="196" text-anchor="end" fill="#ffffff">High Falls Flowage</text>
    </g>
  </g>

  <g>
    <rect x="56" y="386" width="648" height="80" rx="20" fill="#ffffff" opacity="0.94"/>
    <text x="84" y="421" font-family="Manrope, Arial, sans-serif" font-size="18" font-weight="800" fill="#17324d">Seasonal dock, lift, storage, winterization, repair, and shoreline service.</text>
    <text x="84" y="447" font-family="Source Sans 3, Arial, sans-serif" font-size="16" fill="#3f6788">Tell Midwest the lake, property address, and current setup to get to a more useful estimate faster.</text>
  </g>
</svg>
